<svg width="50" height="50" viewBox="0 0 50 50" fill="none" xmlns="http://www.w3.org/2000/svg">
<g opacity="0.3" clip-path="url(#clip0_10569_338799)">
<path d="M21.9972 15.5108L25.5183 19.3792L30.6676 18.7713L27.9085 23.0231L30.4204 27.5479L24.8398 26.1194L20.721 30.1468L20.634 24.9723L16.1186 22.6697L21.0178 20.5851L21.9972 15.5108Z" fill="white"/>
<path d="M31.2478 41.6203L28.8182 40.9718L31.3938 31.1854L38.6683 29.2362C38.987 29.1513 39.2858 29.0044 39.5476 28.8038C39.8094 28.6032 40.0291 28.353 40.194 28.0673C40.3589 27.7817 40.4658 27.4664 40.5086 27.1393C40.5514 26.8123 40.5292 26.4801 40.4434 26.1616L36.545 11.6126C36.4601 11.2939 36.3132 10.9951 36.1126 10.7333C35.912 10.4715 35.6618 10.2518 35.3761 10.0869C35.0905 9.92204 34.7752 9.81512 34.4481 9.77232C34.1211 9.72952 33.7889 9.75167 33.4704 9.83751L9.22206 16.3348C8.90337 16.4197 8.60455 16.5667 8.34275 16.7672C8.08094 16.9678 7.8613 17.2181 7.69639 17.5037C7.53149 17.7893 7.42457 18.1047 7.38177 18.4317C7.33897 18.7587 7.36112 19.091 7.44696 19.4094L11.3454 33.9584C11.4302 34.2771 11.5772 34.5759 11.7778 34.8378C11.9783 35.0996 12.2286 35.3192 12.5142 35.4841C12.7998 35.649 13.1152 35.7559 13.4422 35.7987C13.7692 35.8415 14.1015 35.8194 14.4199 35.7335L25.3317 32.8097L25.9814 35.2346L15.0697 38.1584C13.7834 38.503 12.413 38.3226 11.2598 37.6568C10.1066 36.991 9.26516 35.8944 8.92052 34.6082L5.02212 20.0591C4.67748 18.7729 4.8579 17.4025 5.5237 16.2493C6.18949 15.0961 7.28612 14.2546 8.57233 13.91L32.8207 7.41267C34.1069 7.06803 35.4774 7.24846 36.6305 7.91425C37.7837 8.58004 38.6252 9.67667 38.9698 10.9629L42.8682 25.5119C43.2129 26.7981 43.0325 28.1686 42.3667 29.3217C41.7009 30.4749 40.6042 31.3164 39.318 31.661L33.456 33.2318L31.2478 41.6203Z" fill="white"/>
</g>
<defs>
<clipPath id="clip0_10569_338799">
<rect width="40.166" height="40.166" fill="white" transform="translate(0 11.0093) rotate(-15)"/>
</clipPath>
</defs>
</svg>
