<svg width="91" height="62" viewBox="0 0 91 62" fill="none" xmlns="http://www.w3.org/2000/svg">
<g opacity="0.2" clip-path="url(#clip0_10708_200364)">
<path d="M15.3893 24.7193C19.5667 9.12884 35.5914 -0.122994 51.1819 4.05447C66.7723 8.23193 76.0242 24.2566 71.8467 39.8471C67.6693 55.4376 51.6446 64.6894 36.0541 60.5119C20.4636 56.3345 11.2118 40.3098 15.3893 24.7193ZM43.7423 34.5151C47.0096 36.3133 47.7519 37.7351 47.2357 39.6617C46.6993 41.6636 44.9466 42.8176 41.6821 42.2039L43.7423 34.5151ZM42.7863 29.6286C39.9948 28.0775 39.2072 26.5239 39.6635 24.8208C40.1199 23.1177 41.9576 21.9473 44.7424 22.3329L42.7863 29.6286ZM44.7647 30.6995L46.8548 22.8989C49.1695 23.8394 50.4868 25.6559 50.0983 28.0794L53.9892 29.122C54.9776 24.8359 52.3433 21.1221 47.7672 19.4939L48.6141 16.3334L46.5004 15.7671L45.6536 18.9275C40.8439 18.0207 36.7361 19.8863 35.6131 24.0771C34.5958 27.8739 36.587 30.6942 41.0421 33.0705L41.7588 33.463L39.5735 41.6187C36.6475 40.4943 35.6567 38.5043 35.9068 36.2252L32.0347 35.1877C30.9612 39.7119 34.006 43.3945 38.6611 45.0238L37.8193 48.1654L39.933 48.7318L40.7748 45.5901C45.6359 46.5309 50.0739 44.934 51.302 40.3504C52.3695 36.3666 50.2174 33.6242 45.6031 31.1649L44.7647 30.6995Z" fill="white"/>
</g>
<defs>
<clipPath id="clip0_10708_200364">
<rect width="74.1936" height="74.1936" fill="white" transform="translate(19.2031 -10) rotate(15)"/>
</clipPath>
</defs>
</svg>
